HIERARCHY
ROOT Hips
{
	OFFSET	0.000000	0.000000	0.000000
	CHANNELS 6 Xposition Yposition Zposition Zrotation Xrotation Yrotation
	JOINT LeftUpLeg
	{
		OFFSET	12.811937	-7.635976	0.557276
		CHANNELS 3 Zrotation Xrotation Yrotation
		JOINT LeftLeg
		{
			OFFSET	-0.429270	-42.206159	-1.204951
			CHANNELS 3 Zrotation Xrotation Yrotation
			JOINT LeftFoot
			{
				OFFSET	-2.112259	-42.464481	-3.973220
				CHANNELS 3 Zrotation Xrotation Yrotation
				JOINT LeftFootHeel
				{
					OFFSET	0.387196	-5.329707	-3.419729
					CHANNELS 3 Zrotation Xrotation Yrotation
					End Site
					{
						OFFSET	0.327567	-0.000003	16.505428
					}
				}
			}
		}
	}
	JOINT RightUpLeg
	{
		OFFSET	-12.811937	-7.635976	0.557276
		CHANNELS 3 Zrotation Xrotation Yrotation
		JOINT RightLeg
		{
			OFFSET	0.429270	-42.206159	-1.204951
			CHANNELS 3 Zrotation Xrotation Yrotation
			JOINT RightFoot
			{
				OFFSET	2.112259	-42.464481	-3.973220
				CHANNELS 3 Zrotation Xrotation Yrotation
				JOINT RightFootHeel
				{
					OFFSET	-0.387198	-5.329707	-3.419729
					CHANNELS 3 Zrotation Xrotation Yrotation
					End Site
					{
						OFFSET	-0.327566	-0.000003	16.505428
					}
				}
			}
		}
	}
	JOINT Spine
	{
		OFFSET	0.000000	13.731315	-1.007646
		CHANNELS 3 Zrotation Xrotation Yrotation
		JOINT Spine1
		{
			OFFSET	0.000000	12.091746	-0.604589
			CHANNELS 3 Zrotation Xrotation Yrotation
			JOINT LeftShoulder
			{
				OFFSET	5.746115	20.990027	-0.833816
				CHANNELS 3 Zrotation Xrotation Yrotation
				JOINT LeftArm
				{
					OFFSET	10.881538	-1.359258	0.219250
					CHANNELS 3 Zrotation Xrotation Yrotation
					JOINT LeftForeArm
					{
						OFFSET	4.390314	-31.537147	0.202818
						CHANNELS 3 Zrotation Xrotation Yrotation
						JOINT LeftHand
						{
							OFFSET	3.168650	-24.865023	5.373370
							CHANNELS 3 Zrotation Xrotation Yrotation
							End Site
							{
								OFFSET	1.457528	-10.806075	2.170267
							}
						}
					}
				}
			}
			JOINT RightShoulder
			{
				OFFSET	-5.746115	20.990027	-0.833816
				CHANNELS 3 Zrotation Xrotation Yrotation
				JOINT RightArm
				{
					OFFSET	-10.881538	-1.359258	0.219250
					CHANNELS 3 Zrotation Xrotation Yrotation
					JOINT RightForeArm
					{
						OFFSET	-4.390314	-31.537147	0.202818
						CHANNELS 3 Zrotation Xrotation Yrotation
						JOINT RightHand
						{
							OFFSET	-3.168650	-24.865023	5.373370
							CHANNELS 3 Zrotation Xrotation Yrotation
							End Site
							{
								OFFSET	-1.457528	-10.806075	2.170267
							}
						}
					}
				}
			}
			JOINT Neck
			{
				OFFSET	0.000000	27.075639	0.680489
				CHANNELS 3 Zrotation Xrotation Yrotation
				JOINT Head
				{
					OFFSET	0.000000	12.391287	1.239129
					CHANNELS 3 Zrotation Xrotation Yrotation
					End Site
					{
						OFFSET	0.000000	13.818691	-0.105853
					}
				}
			}
		}
	}
}
MOTION
Frames:    6
Frame Time: 0.016667
0.000000	100.409248	0.000000	-0.411974	1.183387	0.182800	0.101907	-0.817228	-1.629439	0.547841	1.554344	2.727998	0.107107	-1.395047	5.117692	0.	0.	0.	1.160607	-0.265791	-2.081782	0.299588	-1.369676	1.631112	-0.740693	2.117578	0.000372	0.	0.	0.	0.768400	-0.040770	-2.207774	-1.086579	0.821715	2.430198	0.221244	-1.103773	-0.760657	1.295441	-0.506027	-2.809905	-0.555836	0.291984	-7.491041	0.105693	-0.763751	-4.002010	0.283047	0.359650	-0.540159	-0.798691	-0.666212	5.982526	-0.210240	-0.143109	8.872046	-2.957001	-1.384375	8.082116	-1.533447	-0.731579	-0.356768	0.474882	0.633844	-8.035491	
0.000000	100.409248	0.000000	-0.411974	1.183387	0.182800	0.098965	-0.818273	-1.647916	0.549745	1.555429	2.736631	0.107863	-1.394834	5.127506	0.	0.	0.	1.160607	-0.265791	-2.081782	0.299588	-1.369676	1.631112	-0.740693	2.117578	0.000372	0.	0.	0.	0.768400	-0.040770	-2.207774	-1.086642	0.827776	2.430765	0.215986	-1.093987	-0.772025	1.317833	-0.482191	-2.773781	-0.542746	0.272703	-7.502218	0.108131	-0.780747	-4.006221	0.277224	0.382277	-0.544799	-0.785701	-0.665913	5.982292	-0.220256	-0.171221	8.875999	-2.990540	-1.311128	8.229554	-1.533650	-0.737620	-0.357497	0.371156	0.697013	-8.051395	
0.000000	100.409248	0.000000	-0.411974	1.183387	0.182800	0.097536	-0.818772	-1.656892	0.550916	1.556057	2.745583	0.107863	-1.394834	5.127506	0.	0.	0.	1.160607	-0.265791	-2.081782	0.299588	-1.369676	1.631112	-0.740693	2.117578	0.000372	0.	0.	0.	0.768400	-0.040770	-2.207774	-1.086894	0.853013	2.433048	0.212569	-1.111189	-0.779702	1.332444	-0.464145	-2.761817	-0.539666	0.256366	-7.501833	0.108029	-0.783441	-4.002337	0.273580	0.371548	-0.549008	-0.779208	-0.666076	5.982203	-0.226829	-0.170714	8.876827	-3.030471	-1.228828	8.391571	-1.534507	-0.762775	-0.360449	0.349613	0.722347	-8.052881	
0.000000	100.409248	0.000000	-0.411974	1.183387	0.182800	0.093667	-0.820129	-1.681153	0.554085	1.557759	2.769784	0.107863	-1.394834	5.127506	0.	0.	0.	1.160607	-0.265791	-2.081782	0.299588	-1.369676	1.631112	-0.740693	2.117578	0.000372	0.	0.	0.	0.768400	-0.040770	-2.207774	-1.086894	0.853013	2.433048	0.204903	-1.087106	-0.796155	1.352269	-0.462160	-2.745086	-0.536156	0.240526	-7.494823	0.105138	-0.778534	-3.996030	0.270725	0.386013	-0.551115	-0.772912	-0.667044	5.982285	-0.234188	-0.132277	8.863316	-3.035477	-1.280894	8.404179	-1.534507	-0.762775	-0.360449	0.310885	0.795756	-8.051393	
0.000000	100.409248	0.000000	-0.411974	1.183387	0.182800	0.092044	-0.820695	-1.691343	0.555414	1.558471	2.779947	0.107863	-1.394834	5.127506	0.	0.	0.	1.160607	-0.265791	-2.081782	0.299588	-1.369676	1.631112	-0.740693	2.117578	0.000372	0.	0.	0.	0.775497	-0.042065	-2.229598	-1.094693	0.884151	2.457658	0.201674	-1.101533	-0.811259	1.384267	-0.390458	-2.733266	-0.507584	0.199281	-7.467046	0.088303	-0.752629	-3.968122	0.258089	0.413338	-0.562783	-0.743518	-0.679406	5.959073	-0.259996	-0.138413	8.891994	-3.151216	-1.086974	8.864797	-1.535533	-0.793209	-0.364024	0.301377	0.845658	-8.046261	
0.000000	100.409248	0.000000	-0.411974	1.183387	0.182800	0.092044	-0.820695	-1.691343	0.555414	1.558471	2.779947	0.107863	-1.394834	5.127506	0.	0.	0.	1.160607	-0.265791	-2.081782	0.299588	-1.369676	1.631112	-0.740693	2.117578	0.000372	0.	0.	0.	0.784244	-0.043681	-2.256569	-1.104419	0.930149	2.488764	0.214370	-1.115188	-0.848831	1.354525	-0.368741	-2.700786	-0.461542	0.235788	-7.449247	0.064901	-0.751673	-3.934988	0.244978	0.425393	-0.575949	-0.715083	-0.721432	5.913244	-0.283242	-0.100652	8.942554	-3.310419	-0.935754	9.500812	-1.537067	-0.838304	-0.369335	0.289768	0.954488	-8.081264	
